# Blender 3.3.1
# www.blender.org
mtllib Cheese.mtl
o Cube
v 0.536063 0.083791 -0.588582
v 0.536063 0.004406 -0.588582
v 0.575731 0.117505 0.525369
v 0.575731 0.012275 0.525369
v -0.585553 0.092798 -0.562204
v -0.593546 0.011171 -0.595338
v -0.598535 0.046574 0.618045
v -0.583677 -0.005119 0.589016
v -0.609568 -0.001599 -0.000000
v 0.000000 -0.001599 -0.609568
v 0.745544 -0.007626 -0.745544
v -0.708978 -0.045989 0.706394
v 0.708856 0.023508 0.685819
v -0.737550 0.016170 -0.712410
v 0.000169 0.105179 0.613710
v 0.609568 0.123706 0.000000
v -0.000000 -0.001599 0.609568
v -0.625423 0.079447 -0.015026
v 0.000452 0.114926 -0.610070
v 0.609568 0.003593 0.000000
v -0.000000 -0.001599 -0.000000
v 0.000169 0.042527 0.843648
v -0.823036 0.018378 -0.007823
v 0.002944 0.109527 0.000760
v 0.839506 0.020687 -0.000000
v 0.032175 0.025590 -0.814208
vn 0.0098 -1.0000 -0.0013
vn -0.0107 -0.9999 -0.0107
vn 0.0167 -0.9998 0.0081
vn 0.0030 -1.0000 -0.0030
vn 0.0209 -0.9910 0.1320
vn 0.0720 0.9339 0.3502
vn -0.1422 0.9082 0.3936
vn 0.0670 -0.9972 0.0331
vn 0.0432 -0.9975 -0.0566
vn -0.4164 0.9026 0.1087
vn -0.3566 0.9339 -0.0274
vn -0.0651 -0.9978 -0.0132
vn -0.0426 0.9990 0.0148
vn 0.0154 0.9994 -0.0297
vn -0.0723 0.9969 0.0312
vn -0.0218 0.9997 0.0086
vn 0.0181 -0.9997 0.0183
vn 0.3745 0.9224 -0.0942
vn 0.4539 0.8887 0.0641
vn 0.0695 -0.9974 0.0189
vn -0.0106 -0.9953 -0.0959
vn -0.0659 0.9120 -0.4048
vn 0.0762 0.9111 -0.4052
vn -0.0179 -0.9984 -0.0538
vt 0.863084 0.498360
vt 0.793125 0.498360
vt 0.863084 0.568319
vt 0.793125 0.568319
vt 0.863084 0.428400
vt 0.793125 0.428400
vt 0.863084 0.358441
vt 0.863084 0.638278
vt 0.793125 0.638278
vt 0.793125 0.358441
vt 0.793125 0.393420
vt 0.793125 0.463380
vt 0.828104 0.498360
vt 0.828104 0.638278
vt 0.828104 0.358441
vt 0.828104 0.568319
vt 0.828104 0.428400
vt 0.863084 0.603299
vt 0.863084 0.533339
vt 0.793125 0.603299
vt 0.863084 0.393420
vt 0.863084 0.463380
vt 0.793125 0.533339
vt 0.793125 0.498360
vt 0.828104 0.603299
vt 0.828104 0.393420
vt 0.863084 0.498360
vt 0.828104 0.533339
vt 0.828104 0.463380
s 0
usemtl Material
f 10/12/1 2/2/1 20/23/1 21/24/1
f 6/6/2 10/12/2 21/24/2 9/11/2
f 21/24/3 20/23/3 4/4/3 17/20/3
f 9/11/4 21/24/4 17/20/4 8/10/4
f 4/4/5 13/16/5 22/25/5 17/20/5
f 13/16/6 3/3/6 15/18/6 22/25/6
f 22/25/7 15/18/7 7/8/7 12/14/7
f 17/20/8 22/25/8 12/14/8 8/9/8
f 8/10/9 12/15/9 23/26/9 9/11/9
f 12/15/10 7/7/10 18/21/10 23/26/10
f 23/26/11 18/21/11 5/5/11 14/17/11
f 9/11/12 23/26/12 14/17/12 6/6/12
f 19/22/13 5/5/13 18/21/13 24/27/13
f 1/1/14 19/22/14 24/27/14 16/19/14
f 24/27/15 18/21/15 7/8/15 15/18/15
f 16/19/16 24/27/16 15/18/16 3/3/16
f 2/2/17 11/13/17 25/28/17 20/23/17
f 11/13/18 1/1/18 16/19/18 25/28/18
f 25/28/19 16/19/19 3/3/19 13/16/19
f 20/23/20 25/28/20 13/16/20 4/4/20
f 6/6/21 14/17/21 26/29/21 10/12/21
f 14/17/22 5/5/22 19/22/22 26/29/22
f 26/29/23 19/22/23 1/1/23 11/13/23
f 10/12/24 26/29/24 11/13/24 2/2/24
