# Blender 3.3.1
# www.blender.org
mtllib Patty.mtl
o Cube
v 0.556884 0.401805 -0.560102
v 0.591128 0.200000 -0.591128
v 0.564264 0.009091 -0.568386
v -0.556041 -0.002651 0.555976
v -0.563589 0.218880 0.618667
v -0.555601 0.401897 0.555601
v 0.557642 0.405357 0.557403
v 0.590713 0.200004 0.590715
v 0.571452 0.007867 0.564384
v -0.563455 0.397418 -0.554868
v -0.591128 0.200000 -0.591128
v -0.568151 0.012046 -0.566942
v 0.307553 -0.003935 0.710090
v 0.323063 0.200000 0.758178
v 0.321893 0.408376 0.701222
v -0.000412 0.000633 0.763461
v 0.016060 0.201020 0.814111
v 0.000062 0.403918 0.759763
v -0.304432 0.008304 0.715263
v -0.323063 0.200000 0.758178
v -0.306593 0.401897 0.706937
v -0.714470 0.002816 0.294993
v -0.753533 0.188720 0.335443
v -0.706937 0.401897 0.306593
v -0.756923 -0.000238 0.000071
v -0.814111 0.200000 -0.000000
v -0.773956 0.393063 -0.001295
v -0.706937 -0.001897 -0.306593
v -0.754453 0.215834 -0.332886
v -0.706937 0.401897 -0.306593
v 0.715072 0.004312 -0.314278
v 0.759028 0.200000 -0.323382
v 0.719211 0.394591 -0.315287
v 0.758178 -0.001897 0.000000
v 0.814146 0.200374 -0.006072
v 0.764226 0.409812 -0.000365
v 0.706937 -0.001897 0.306593
v 0.751081 0.205015 0.336403
v 0.726888 0.400206 0.300398
v -0.313037 0.025384 -0.720945
v -0.336469 0.176336 -0.752890
v -0.307394 0.403810 -0.708726
v 0.000046 -0.003016 -0.759034
v 0.000000 0.200000 -0.814111
v -0.000296 0.409768 -0.764349
v 0.321746 -0.001375 -0.704512
v 0.359448 0.226667 -0.744598
v 0.307386 0.403539 -0.709396
v -0.000044 0.416395 0.617595
v 0.002678 0.397466 0.319986
v 0.000046 0.390669 0.000002
v 0.000008 0.399270 -0.345991
v -0.000000 0.409749 -0.617518
v 0.000000 -0.003155 0.617506
v 0.000008 0.006023 0.346036
v 0.000003 0.003898 -0.000009
v 0.016405 0.007044 -0.358920
v 0.000000 -0.003659 -0.617507
vn 0.1674 -0.2464 0.9546
vn 0.1713 0.2640 0.9492
vn -0.1579 -0.2300 0.9603
vn -0.1620 0.2492 0.9548
vn 0.5005 -0.2021 0.8418
vn 0.5136 0.2233 0.8285
vn -0.4828 0.2774 0.8306
vn -0.5062 -0.2435 0.8273
vn -0.9551 -0.2540 0.1528
vn -0.9570 0.2185 0.1906
vn -0.9535 -0.2495 -0.1690
vn -0.9556 0.2329 -0.1807
vn -0.8153 -0.2280 0.5323
vn -0.8245 0.2332 0.5155
vn -0.8249 0.2448 -0.5095
vn -0.8455 -0.2081 -0.4918
vn 0.9574 -0.2462 -0.1512
vn 0.9628 0.2192 -0.1579
vn 0.9549 -0.2435 0.1699
vn 0.9700 0.1891 0.1529
vn 0.8362 -0.1954 -0.5125
vn 0.8239 0.2060 -0.5279
vn 0.8219 0.2092 0.5298
vn 0.8469 -0.2037 0.4912
vn -0.1483 -0.2454 -0.9580
vn -0.1840 0.2180 -0.9584
vn 0.1836 -0.2272 -0.9564
vn 0.1714 0.2335 -0.9571
vn -0.5181 -0.2083 -0.8296
vn -0.5067 0.2252 -0.8322
vn 0.5251 0.2613 -0.8100
vn 0.5052 -0.2036 -0.8386
vn -0.0279 0.9974 0.0661
vn -0.0060 0.9994 -0.0330
vn 0.0049 0.9997 -0.0254
vn 0.0041 0.9996 0.0272
vn -0.0069 0.9999 0.0096
vn -0.0205 0.9998 0.0039
vn 0.0134 0.9989 0.0441
vn 0.0038 0.9991 -0.0422
vn -0.0147 0.9999 0.0037
vn -0.0096 0.9999 -0.0094
vn 0.0077 0.9995 0.0318
vn 0.0175 0.9998 -0.0089
vn -0.0175 -0.9979 0.0626
vn 0.0047 -0.9996 -0.0289
vn 0.0047 -1.0000 0.0078
vn 0.0088 -1.0000 -0.0014
vn -0.0058 -1.0000 -0.0076
vn -0.0596 -0.9934 -0.0985
vn 0.0045 -0.9997 -0.0234
vn 0.0026 -1.0000 0.0018
vn -0.0093 -1.0000 0.0025
vn -0.0054 -0.9999 -0.0137
vn 0.0072 -0.9999 0.0092
vn 0.0135 -0.9996 0.0236
vt 0.933675 0.877298
vt 0.933081 0.877298
vt 0.933081 0.944172
vt 0.939363 0.840277
vt 0.935195 0.805254
vt 0.934435 0.805254
vt 0.934435 0.945691
vt 0.728928 0.803100
vt 0.728913 0.739425
vt 0.727528 0.843741
vt 0.717427 0.843741
vt 0.728997 0.877315
vt 0.728993 0.739493
vt 0.933220 0.877950
vt 0.728666 0.877950
vt 0.933220 0.739163
vt 0.939287 0.840278
vt 0.722555 0.840278
vt 0.935754 0.805030
vt 0.727385 0.805030
vt 0.935754 0.737882
vt 0.932715 0.876494
vt 0.727553 0.876494
vt 0.727553 0.943212
vt 0.939367 0.840277
vt 0.722476 0.840277
vt 0.934930 0.805796
vt 0.726691 0.805796
vt 0.726691 0.945427
vt 0.887341 0.802865
vt 0.887341 0.711152
vt 0.890186 0.840277
vt 0.889972 0.878504
vt 0.889972 0.712779
vt 0.830844 0.803703
vt 0.830844 0.701361
vt 0.833866 0.840464
vt 0.830931 0.877686
vt 0.830931 0.702040
vt 0.775071 0.805110
vt 0.775071 0.710203
vt 0.771653 0.840277
vt 0.774674 0.877315
vt 0.774674 0.711731
vt 0.776806 0.804103
vt 0.699849 0.787303
vt 0.769385 0.838208
vt 0.774678 0.877315
vt 0.701230 0.785175
vt 0.830910 0.803543
vt 0.692060 0.841407
vt 0.830923 0.840277
vt 0.831161 0.875695
vt 0.688936 0.841657
vt 0.887168 0.803239
vt 0.701230 0.897665
vt 0.891991 0.843182
vt 0.887168 0.877315
vt 0.701230 0.897665
vt 0.888578 0.804378
vt 0.962101 0.899075
vt 0.890248 0.840277
vt 0.888763 0.875975
vt 0.962860 0.899260
vt 0.830923 0.803239
vt 0.970009 0.841420
vt 0.832037 0.840346
vt 0.830990 0.878767
vt 0.971119 0.841487
vt 0.774678 0.803239
vt 0.960609 0.785175
vt 0.769209 0.841197
vt 0.775814 0.877005
vt 0.964269 0.786311
vt 0.773492 0.808243
vt 0.773492 0.973679
vt 0.769194 0.835936
vt 0.774527 0.877666
vt 0.774527 0.971437
vt 0.830928 0.803033
vt 0.830928 0.980666
vt 0.830920 0.840277
vt 0.830865 0.878759
vt 0.830865 0.981641
vt 0.889945 0.803334
vt 0.889945 0.970664
vt 0.896861 0.845169
vt 0.887310 0.877617
vt 0.887310 0.971560
vt 0.830912 0.728121
vt 0.831411 0.782718
vt 0.830928 0.841419
vt 0.830921 0.904893
vt 0.830920 0.954705
vt 0.830920 0.728137
vt 0.830921 0.777939
vt 0.830920 0.841421
vt 0.833929 0.907264
vt 0.830920 0.954703
s 0
usemtl Material
f 13/30/1 14/32/1 17/37/1 16/35/1
f 14/32/2 15/33/2 18/38/2 17/37/2
f 16/35/3 17/37/3 20/42/3 19/40/3
f 17/37/4 18/38/4 21/43/4 20/42/4
f 9/19/5 8/17/5 14/32/5 13/30/5
f 8/17/6 7/14/6 15/33/6 14/32/6
f 20/42/7 21/43/7 6/12/7 5/10/7
f 19/40/8 20/42/8 5/10/8 4/8/8
f 22/45/9 23/47/9 26/52/9 25/50/9
f 23/47/10 24/48/10 27/53/10 26/52/10
f 25/50/11 26/52/11 29/57/11 28/55/11
f 26/52/12 27/53/12 30/58/12 29/57/12
f 4/8/13 5/11/13 23/47/13 22/45/13
f 5/11/14 6/12/14 24/48/14 23/47/14
f 29/57/15 30/58/15 10/22/15 11/25/15
f 28/55/16 29/57/16 11/25/16 12/27/16
f 31/60/17 32/62/17 35/67/17 34/65/17
f 32/62/18 33/63/18 36/68/18 35/67/18
f 34/65/19 35/67/19 38/72/19 37/70/19
f 35/67/20 36/68/20 39/73/20 38/72/20
f 3/5/21 2/4/21 32/62/21 31/60/21
f 2/4/22 1/1/22 33/63/22 32/62/22
f 38/72/23 39/73/23 7/15/23 8/18/23
f 37/70/24 38/72/24 8/18/24 9/20/24
f 40/75/25 41/77/25 44/82/25 43/80/25
f 41/77/26 42/78/26 45/83/26 44/82/26
f 43/80/27 44/82/27 47/87/27 46/85/27
f 44/82/28 45/83/28 48/88/28 47/87/28
f 12/28/29 11/26/29 41/77/29 40/75/29
f 11/26/30 10/23/30 42/78/30 41/77/30
f 47/87/31 48/88/31 1/2/31 2/4/31
f 46/85/32 47/87/32 2/4/32 3/6/32
f 18/39/33 49/90/33 6/13/33 21/44/33
f 49/90/34 50/91/34 24/49/34 6/13/34
f 50/91/35 51/92/35 27/54/35 24/49/35
f 51/92/36 52/93/36 30/59/36 27/54/36
f 52/93/37 53/94/37 10/24/37 30/59/37
f 53/94/38 45/84/38 42/79/38 10/24/38
f 15/34/39 7/16/39 49/90/39 18/39/39
f 7/16/40 39/74/40 50/91/40 49/90/40
f 39/74/41 36/69/41 51/92/41 50/91/41
f 36/69/42 33/64/42 52/93/42 51/92/42
f 33/64/43 1/3/43 53/94/43 52/93/43
f 1/3/44 48/89/44 45/84/44 53/94/44
f 19/41/45 4/9/45 54/95/45 16/36/45
f 4/9/46 22/46/46 55/96/46 54/95/46
f 22/46/47 25/51/47 56/97/47 55/96/47
f 25/51/48 28/56/48 57/98/48 56/97/48
f 28/56/49 12/29/49 58/99/49 57/98/49
f 12/29/50 40/76/50 43/81/50 58/99/50
f 16/36/51 54/95/51 9/21/51 13/31/51
f 54/95/52 55/96/52 37/71/52 9/21/52
f 55/96/53 56/97/53 34/66/53 37/71/53
f 56/97/54 57/98/54 31/61/54 34/66/54
f 57/98/55 58/99/55 3/7/55 31/61/55
f 58/99/56 43/81/56 46/86/56 3/7/56
