# Blender 3.3.1
# www.blender.org
mtllib Tomato.mtl
o Cube
v 0.490242 0.242207 -0.490242
v 0.493571 0.120000 -0.493571
v 0.490242 -0.002206 -0.490242
v -0.490242 -0.002206 0.490242
v -0.493571 0.120000 0.493571
v -0.490242 0.242207 0.490242
v 0.490242 0.242207 0.490242
v 0.493571 0.120000 0.493571
v 0.490242 -0.002206 0.490242
v -0.490242 0.242207 -0.490242
v -0.493571 0.120000 -0.493571
v -0.490242 -0.002206 -0.490242
v 0.000000 -0.002206 -0.544864
v 0.270526 -0.002206 0.623775
v 0.269746 0.120000 0.633051
v 0.270526 0.242207 0.623775
v -0.000000 -0.002206 0.668988
v 0.000000 0.120000 0.679753
v 0.000000 0.242207 0.668988
v -0.270526 -0.002206 0.623775
v -0.269746 0.120000 0.633051
v -0.270526 0.242207 0.623775
v -0.623775 -0.002206 0.270526
v -0.633051 0.120000 0.269746
v -0.623775 0.242207 0.270526
v -0.668988 -0.002206 -0.000000
v -0.679753 0.120000 -0.000000
v -0.668988 0.242207 -0.000000
v -0.623775 -0.002206 -0.270526
v -0.633051 0.120000 -0.269746
v -0.623775 0.242207 -0.270526
v 0.000000 -0.002206 -0.305277
v 0.000000 -0.002206 -0.000000
v 0.000000 -0.002206 0.305277
v 0.000000 -0.002206 0.544864
v -0.000000 0.242207 -0.544864
v 0.000000 0.242207 -0.305277
v 0.000000 0.242207 0.000000
v -0.000000 0.242207 0.305277
v 0.000000 0.242207 0.544864
v 0.623775 -0.002206 -0.270526
v 0.633051 0.120000 -0.269746
v 0.623775 0.242207 -0.270526
v 0.668988 -0.002206 0.000000
v 0.679753 0.120000 -0.000000
v 0.668988 0.242207 -0.000000
v 0.623775 -0.002206 0.270526
v 0.633051 0.120000 0.269746
v 0.623775 0.242207 0.270526
v -0.270526 -0.002206 -0.623775
v -0.269746 0.120000 -0.633051
v -0.270526 0.242207 -0.623775
v 0.000000 -0.002206 -0.668988
v 0.000000 0.120000 -0.679753
v -0.000000 0.242207 -0.668988
v 0.270526 -0.002206 -0.623775
v 0.269746 0.120000 -0.633051
v 0.270526 0.242207 -0.623775
vn 0.1672 -0.0800 0.9827
vn 0.1672 0.0800 0.9827
vn -0.1672 -0.0800 0.9827
vn -0.1672 0.0800 0.9827
vn 0.5236 -0.0493 0.8506
vn 0.5236 0.0493 0.8506
vn -0.5236 0.0493 0.8506
vn -0.5236 -0.0493 0.8506
vn -0.9827 -0.0800 0.1672
vn -0.9827 0.0800 0.1672
vn -0.9827 -0.0800 -0.1672
vn -0.9827 0.0800 -0.1672
vn -0.8506 -0.0493 0.5236
vn -0.8506 0.0493 0.5236
vn -0.8506 0.0493 -0.5236
vn -0.8506 -0.0493 -0.5236
vn -0.0000 -1.0000 -0.0000
vn -0.0000 1.0000 -0.0000
vn 0.9827 -0.0800 -0.1672
vn 0.9827 0.0800 -0.1672
vn 0.9827 -0.0800 0.1672
vn 0.9827 0.0800 0.1672
vn 0.8506 -0.0493 -0.5236
vn 0.8506 0.0493 -0.5236
vn 0.8506 0.0493 0.5236
vn 0.8506 -0.0493 0.5236
vn -0.1672 -0.0800 -0.9827
vn -0.1672 0.0800 -0.9827
vn 0.1672 -0.0800 -0.9827
vn 0.1672 0.0800 -0.9827
vn -0.5236 -0.0493 -0.8506
vn -0.5236 0.0493 -0.8506
vn 0.5236 0.0493 -0.8506
vn 0.5236 -0.0493 -0.8506
vt 0.275155 0.604900
vt 0.314690 0.104542
vt 0.315716 0.066902
vt 0.275155 0.604900
vt 0.314690 0.029262
vt 0.016101 0.122389
vt 0.058793 0.388538
vt 0.015110 0.158771
vt 0.016101 0.195154
vt 0.058793 0.388538
vt 0.308004 0.195154
vt 0.012696 0.104542
vt 0.275155 0.388538
vt 0.308995 0.158771
vt 0.011670 0.066902
vt 0.308004 0.122389
vt 0.275155 0.388538
vt 0.012696 0.029262
vt 0.308004 0.195154
vt 0.058793 0.604900
vt 0.012696 0.104542
vt 0.308995 0.158771
vt 0.011670 0.066902
vt 0.308004 0.122389
vt 0.058793 0.604900
vt 0.012696 0.029262
vt 0.166974 0.616953
vt 0.242592 0.122389
vt 0.226671 0.359071
vt 0.242359 0.158771
vt 0.242592 0.195154
vt 0.226671 0.359071
vt 0.162052 0.122389
vt 0.166974 0.349094
vt 0.162052 0.158771
vt 0.162052 0.195154
vt 0.166974 0.349094
vt 0.081513 0.122389
vt 0.107277 0.359071
vt 0.081746 0.158771
vt 0.081513 0.195154
vt 0.107277 0.359071
vt 0.081513 0.122389
vt 0.029327 0.437022
vt 0.081746 0.158771
vt 0.081513 0.195154
vt 0.029327 0.437022
vt 0.162052 0.122389
vt 0.019350 0.496719
vt 0.162052 0.158771
vt 0.162052 0.195154
vt 0.019350 0.496719
vt 0.242592 0.122389
vt 0.029327 0.556416
vt 0.242359 0.158771
vt 0.242592 0.195154
vt 0.029327 0.556416
vt 0.166974 0.564084
vt 0.166974 0.496719
vt 0.166974 0.429354
vt 0.166974 0.376485
vt 0.166974 0.616953
vt 0.166974 0.564084
vt 0.166974 0.496719
vt 0.166974 0.429354
vt 0.166974 0.376485
vt 0.304622 0.556416
vt 0.247017 0.029262
vt 0.246776 0.066902
vt 0.304622 0.556416
vt 0.247017 0.104542
vt 0.314599 0.496719
vt 0.163693 0.029262
vt 0.163693 0.066902
vt 0.314599 0.496719
vt 0.163693 0.104542
vt 0.304622 0.437022
vt 0.080369 0.029262
vt 0.080610 0.066902
vt 0.304622 0.437022
vt 0.080369 0.104542
vt 0.107277 0.634366
vt 0.080369 0.029262
vt 0.080610 0.066902
vt 0.107277 0.634366
vt 0.080369 0.104542
vt 0.166974 0.644343
vt 0.163693 0.029262
vt 0.163693 0.066902
vt 0.166974 0.644343
vt 0.163693 0.104542
vt 0.226671 0.634366
vt 0.247017 0.029262
vt 0.246776 0.066902
vt 0.226671 0.634366
vt 0.247017 0.104542
s 0
usemtl Material
f 14/28/1 15/30/1 18/35/1 17/33/1
f 15/30/2 16/31/2 19/36/2 18/35/2
f 17/33/3 18/35/3 21/40/3 20/38/3
f 18/35/4 19/36/4 22/41/4 21/40/4
f 9/16/5 8/14/5 15/30/5 14/28/5
f 8/14/6 7/11/6 16/31/6 15/30/6
f 21/40/7 22/41/7 6/9/7 5/8/7
f 20/38/8 21/40/8 5/8/8 4/6/8
f 23/43/9 24/45/9 27/50/9 26/48/9
f 24/45/10 25/46/10 28/51/10 27/50/10
f 26/48/11 27/50/11 30/55/11 29/53/11
f 27/50/12 28/51/12 31/56/12 30/55/12
f 4/6/13 5/8/13 24/45/13 23/43/13
f 5/8/14 6/9/14 25/46/14 24/45/14
f 30/55/15 31/56/15 10/19/15 11/22/15
f 29/53/16 30/55/16 11/22/16 12/24/16
f 13/27/17 53/87/17 56/92/17 3/4/17
f 32/58/17 13/27/17 3/4/17 41/67/17
f 33/59/17 32/58/17 41/67/17 44/72/17
f 34/60/17 33/59/17 44/72/17 47/77/17
f 35/61/17 34/60/17 47/77/17 9/17/17
f 17/34/17 35/61/17 9/17/17 14/29/17
f 12/25/17 50/82/17 53/87/17 13/27/17
f 29/54/17 12/25/17 13/27/17 32/58/17
f 26/49/17 29/54/17 32/58/17 33/59/17
f 23/44/17 26/49/17 33/59/17 34/60/17
f 4/7/17 23/44/17 34/60/17 35/61/17
f 20/39/17 4/7/17 35/61/17 17/34/17
f 1/1/18 58/95/18 55/90/18 36/62/18
f 43/70/18 1/1/18 36/62/18 37/63/18
f 46/75/18 43/70/18 37/63/18 38/64/18
f 49/80/18 46/75/18 38/64/18 39/65/18
f 41/68/19 42/69/19 45/74/19 44/73/19
f 42/69/20 43/71/20 46/76/20 45/74/20
f 44/73/21 45/74/21 48/79/21 47/78/21
f 45/74/22 46/76/22 49/81/22 48/79/22
f 7/13/18 49/80/18 39/65/18 40/66/18
f 3/5/23 2/3/23 42/69/23 41/68/23
f 2/3/24 1/2/24 43/71/24 42/69/24
f 48/79/25 49/81/25 7/12/25 8/15/25
f 47/78/26 48/79/26 8/15/26 9/18/26
f 16/32/18 7/13/18 40/66/18 19/37/18
f 36/62/18 55/90/18 52/85/18 10/20/18
f 37/63/18 36/62/18 10/20/18 31/57/18
f 50/83/27 51/84/27 54/89/27 53/88/27
f 51/84/28 52/86/28 55/91/28 54/89/28
f 53/88/29 54/89/29 57/94/29 56/93/29
f 54/89/30 55/91/30 58/96/30 57/94/30
f 38/64/18 37/63/18 31/57/18 28/52/18
f 12/26/31 11/23/31 51/84/31 50/83/31
f 11/23/32 10/21/32 52/86/32 51/84/32
f 57/94/33 58/96/33 1/2/33 2/3/33
f 56/93/34 57/94/34 2/3/34 3/5/34
f 39/65/18 38/64/18 28/52/18 25/47/18
f 40/66/18 39/65/18 25/47/18 6/10/18
f 19/37/18 40/66/18 6/10/18 22/42/18
